<svg xmlns="http://www.w3.org/2000/svg" width="27.785" height="35.758" viewBox="0 0 27.785 35.758"><defs><style>.a{fill:#146f62;}</style></defs><path class="a" d="M355.39,294.605a.524.524,0,0,0-.524.524v.2a10.4,10.4,0,0,1-3.105,7.778.524.524,0,1,0,.721.76,11.423,11.423,0,0,0,3.432-8.539v-.2A.524.524,0,0,0,355.39,294.605Z" transform="translate(-331.029 -274.03)"/><path class="a" d="M353.344,83.652a.524.524,0,1,0-.728.754,9.88,9.88,0,0,1,3.049,7.16v4.758a.524.524,0,0,0,1.048,0V91.566A10.92,10.92,0,0,0,353.344,83.652Z" transform="translate(-331.828 -77.673)"/><path class="a" d="M164.357,44.342a9.8,9.8,0,0,1,5.575-1.776h.06a9.9,9.9,0,0,1,5.045,1.374.524.524,0,1,0,.534-.9,10.952,10.952,0,0,0-5.579-1.52h-.065a10.84,10.84,0,0,0-6.17,1.965.524.524,0,0,0,.6.859Z" transform="translate(-156.099 -38.618)"/><path class="a" d="M101.18,113.349a9.9,9.9,0,0,1-1.531-5.3v-7.873a10.081,10.081,0,0,1,2.506-6.653.524.524,0,1,0-.787-.691,11.128,11.128,0,0,0-2.766,7.344v7.873a10.952,10.952,0,0,0,1.693,5.857c.1.155.2.31.307.46a.524.524,0,1,0,.857-.6C101.362,113.63,101.268,113.49,101.18,113.349Z" transform="translate(-95.701 -86.186)"/><path class="a" d="M155.974,172.305a1.657,1.657,0,0,1-.918-1.485v-7.915a1.7,1.7,0,0,1,1.629-1.719,1.661,1.661,0,0,1,1.691,1.66v6.447a.524.524,0,0,0,1.048,0c0-.007,0-6.436,0-6.447a2.71,2.71,0,0,0-2.761-2.708,2.752,2.752,0,0,0-2.656,2.766v7.915a2.7,2.7,0,0,0,1.494,2.42,3.618,3.618,0,1,1-3.223,6.479,9.987,9.987,0,0,1-2.146-1.45.524.524,0,1,0-.694.785,11.032,11.032,0,0,0,2.371,1.6,4.666,4.666,0,1,0,4.164-8.351Z" transform="translate(-142.824 -148.955)"/><path class="a" d="M136.869,262.348a.524.524,0,0,0-.524.524v3.02a8.324,8.324,0,0,0,4.63,7.479.524.524,0,1,0,.469-.937,7.282,7.282,0,0,1-4.051-6.542v-3.02A.524.524,0,0,0,136.869,262.348Z" transform="translate(-130.809 -244.025)"/><path class="a" d="M299.146,144.519a.524.524,0,0,0-.025.74,4.275,4.275,0,0,1,1.154,2.928v8.142a.524.524,0,0,0,1.048,0v-8.142a5.318,5.318,0,0,0-1.436-3.643A.524.524,0,0,0,299.146,144.519Z" transform="translate(-282.085 -134.295)"/><path class="a" d="M186.123,123.645a.524.524,0,0,0,.316-1,5.348,5.348,0,0,0-6.959,5.154v7.915a.524.524,0,0,0,1.048,0V127.8a4.3,4.3,0,0,1,5.6-4.156Z" transform="translate(-170.932 -113.85)"/><path class="a" d="M189.941,341.879a.524.524,0,0,0-.171.721,5.358,5.358,0,0,0,2.151,1.969.524.524,0,1,0,.472-.935,4.31,4.31,0,0,1-1.731-1.584A.524.524,0,0,0,189.941,341.879Z" transform="translate(-180.43 -317.929)"/><path class="a" d="M256,301.6a.524.524,0,1,0-.509.915,6.29,6.29,0,0,1,2.97,7.3,6.187,6.187,0,0,1-.868,1.79.524.524,0,1,0,.857.6,7.228,7.228,0,0,0,1.015-2.093A7.338,7.338,0,0,0,256,301.6Z" transform="translate(-241.381 -280.473)"/><path class="a" d="M151.471,100.267a10.192,10.192,0,0,0,1.587-5.435V87.618a8.471,8.471,0,0,0-2.468-5.923,8.3,8.3,0,0,0-5.889-2.434h-.049a8.427,8.427,0,0,0-8.308,8.457v2.4a.524.524,0,1,0,1.048,0v-2.4a7.377,7.377,0,0,1,7.268-7.41h.041a7.319,7.319,0,0,1,7.309,7.309v7.214a9.145,9.145,0,0,1-1.426,4.876.524.524,0,0,0,.886.559Z" transform="translate(-130.809 -73.725)"/><path class="a" d="M248.5,208.944v2.619a.524.524,0,1,0,1.048,0v-2.619a.524.524,0,1,0-1.048,0Z" transform="translate(-235.131 -193.864)"/><path class="a" d="M70.976,0A13.908,13.908,0,0,0,57.084,13.892v7.974a13.892,13.892,0,1,0,27.785,0V13.892A13.908,13.908,0,0,0,70.976,0ZM83.821,21.866a12.845,12.845,0,1,1-25.69,0V13.892a12.845,12.845,0,0,1,25.69,0Z" transform="translate(-57.084 0)"/></svg>