<svg xmlns="http://www.w3.org/2000/svg" width="25" height="19" viewBox="0 0 25 19"><defs><style>.a{fill:#178a7b;}</style></defs><path class="a" d="M24.408,69.54H21.486l-.812-2.058A5.44,5.44,0,0,0,15.6,64H9.4a5.442,5.442,0,0,0-5.076,3.482L3.512,69.54H.59a.592.592,0,0,0-.568.737l.293,1.187a.587.587,0,0,0,.568.45h.98A3.161,3.161,0,0,0,.784,74.288v2.374a3.164,3.164,0,0,0,.781,2.074v2.674a1.573,1.573,0,0,0,1.562,1.583H4.689a1.573,1.573,0,0,0,1.562-1.583V79.828h12.5v1.583a1.573,1.573,0,0,0,1.562,1.583h1.562a1.573,1.573,0,0,0,1.562-1.583V78.736a3.162,3.162,0,0,0,.781-2.074V74.288a3.162,3.162,0,0,0-1.077-2.374h.98a.587.587,0,0,0,.568-.45l.293-1.187A.592.592,0,0,0,24.408,69.54ZM7.224,68.658A2.344,2.344,0,0,1,9.4,67.166h6.2a2.344,2.344,0,0,1,2.176,1.492l.973,2.465H6.251ZM4.689,76.652a1.578,1.578,0,0,1,0-3.156,3.025,3.025,0,0,1,2.343,2.367C7.032,76.81,5.626,76.652,4.689,76.652Zm15.62,0c-.937,0-2.343.158-2.343-.789A3.025,3.025,0,0,1,20.309,73.5a1.578,1.578,0,0,1,0,3.156Z" transform="translate(-0.004 -64)"/></svg>