<svg xmlns="http://www.w3.org/2000/svg" width="24.235" height="18.177" viewBox="0 0 24.235 18.177"><defs><style>.a{fill:#707070;}</style></defs><path class="a" d="M21.963,64H2.272A2.272,2.272,0,0,0,0,66.272V79.9a2.272,2.272,0,0,0,2.272,2.272H21.963A2.272,2.272,0,0,0,24.235,79.9V66.272A2.272,2.272,0,0,0,21.963,64Zm0,2.272V68.2c-1.061.864-2.753,2.208-6.371,5.041-.8.627-2.376,2.133-3.475,2.116-1.1.018-2.678-1.489-3.475-2.116C5.026,70.412,3.334,69.068,2.272,68.2V66.272ZM2.272,79.9V71.119c1.085.864,2.623,2.076,4.967,3.912,1.035.814,2.846,2.612,4.878,2.6,2.022.011,3.811-1.761,4.878-2.6,2.344-1.836,3.883-3.048,4.968-3.912V79.9Z" transform="translate(0 -64)"/></svg>