<svg xmlns="http://www.w3.org/2000/svg" width="24.597" height="19.218" viewBox="0 0 24.597 19.218"><defs><style>.a{fill:#fff;}</style></defs><path class="a" d="M0,61.358v-.769a1.153,1.153,0,0,1,1.153-1.153H18.448V57.13a1.154,1.154,0,0,1,1.968-.815l3.843,3.843a1.153,1.153,0,0,1,0,1.631l-3.843,3.843a1.154,1.154,0,0,1-1.968-.815V62.511H1.153A1.153,1.153,0,0,1,0,61.358Zm23.444,7.3H6.149V66.354a1.154,1.154,0,0,0-1.968-.815L.338,69.382a1.153,1.153,0,0,0,0,1.631l3.843,3.843a1.154,1.154,0,0,0,1.968-.815V71.734H23.444A1.153,1.153,0,0,0,24.6,70.582v-.769A1.153,1.153,0,0,0,23.444,68.66Z" transform="translate(0 -55.976)"/></svg>