<svg xmlns="http://www.w3.org/2000/svg" width="24" height="24" viewBox="0 0 24 24">
  <path id="globe-asia-solid" d="M12,8A12,12,0,1,0,24,20,12,12,0,0,0,12,8Zm-.549,11.624a.774.774,0,0,1-.664.376h-.015a.774.774,0,0,0-.547.227l-.274.274a.387.387,0,0,0,0,.547l.274.274a.774.774,0,0,1,.227.547v.453a.774.774,0,0,1-.774.774h-.3a.774.774,0,0,1-.692-.428L7.6,20.48a.387.387,0,0,0-.62-.1l-.942.942a.774.774,0,0,1-.547.227H2.459A9.659,9.659,0,0,1,14.982,10.8l-2.427,1.864a.387.387,0,0,0,.042.668l.524.262a.774.774,0,0,1,.428.692v3.78a.387.387,0,0,1-.387.387h-.148a.386.386,0,0,1-.346-.214.215.215,0,0,0-.375-.015l-.84,1.4Zm8.291,5.332a.774.774,0,0,1-.227.547l-.463.463a.774.774,0,0,1-.547.227h-.734a.774.774,0,0,1-.547-.227l-.63-.63A1.3,1.3,0,0,0,15.364,25l-1.029.257a.767.767,0,0,1-.188.023h-.5a.774.774,0,0,1-.547-.227l-.576-.576a.387.387,0,0,1-.113-.274v-.494a.387.387,0,0,1,.243-.36l1.9-.762a1.3,1.3,0,0,0,.27-.148l1.147-.817a.386.386,0,0,1,.225-.072h.585a.387.387,0,0,1,.358.239l.259.622a.194.194,0,0,0,.179.119h.184a.193.193,0,0,0,.186-.139l.2-.7a.193.193,0,0,1,.186-.139h.293a.193.193,0,0,1,.194.194v.626a.387.387,0,0,0,.113.274l.576.576a.774.774,0,0,1,.227.547v1.19Z" transform="translate(0 -8)" fill="#fff"/>
</svg>
