<svg xmlns="http://www.w3.org/2000/svg" width="54.851" height="93.568" viewBox="0 0 54.851 93.568"><defs><style>.a{fill:#35495e;}.b{fill:#b0d3f0;}.c{fill:#90bae1;}.d{fill:#a5a5a4;}.e{fill:#14a085;}.f{fill:#4482c3;}.g{fill:#e6e7e8;}.h{fill:#cb9080;}.i{fill:#2c3e50;}</style></defs><g transform="translate(-927.999 -265)"><g transform="translate(928 265)"><path class="a" d="M112.384,0h41.944a6.453,6.453,0,0,1,6.453,6.453V87.115a6.453,6.453,0,0,1-6.453,6.453H112.384a6.453,6.453,0,0,1-6.453-6.453V6.453A6.453,6.453,0,0,1,112.384,0Z" transform="translate(-105.932)"/><g transform="translate(4.839 4.839)"><path class="b" d="M177.585,28.1V39.388H132.414V28.1a1.618,1.618,0,0,1,1.613-1.613h5.291a1.628,1.628,0,0,1,1.533,1.113l.5,1.516a3.242,3.242,0,0,0,3.065,2.21h21.166a3.242,3.242,0,0,0,3.065-2.21l.5-1.516a1.628,1.628,0,0,1,1.533-1.113h5.291A1.618,1.618,0,0,1,177.585,28.1Z" transform="translate(-132.414 -26.482)"/><path class="b" d="M177.584,397.241V411.76a1.618,1.618,0,0,1-1.613,1.613H134.026a1.618,1.618,0,0,1-1.613-1.613V397.241Z" transform="translate(-132.413 -329.485)"/></g><rect class="c" width="45.171" height="54.85" transform="translate(4.839 17.744)"/><path class="d" d="M292.924,20.971a1.6,1.6,0,0,1-1.613-1.613,1.613,1.613,0,0,1,2.758-1.145,1.636,1.636,0,0,1,0,2.291A1.7,1.7,0,0,1,292.924,20.971Z" transform="translate(-257.432 -14.519)"/><path class="e" d="M160.509,423.724h3.227a1.613,1.613,0,0,1,1.613,1.613v3.226a1.613,1.613,0,0,1-1.613,1.613h-3.227a1.613,1.613,0,0,1-1.613-1.613v-3.226A1.614,1.614,0,0,1,160.509,423.724Z" transform="translate(-149.218 -346.288)"/><path class="f" d="M213.475,423.724H216.7a1.613,1.613,0,0,1,1.613,1.613v3.226a1.613,1.613,0,0,1-1.613,1.613h-3.226a1.613,1.613,0,0,1-1.613-1.613v-3.226A1.613,1.613,0,0,1,213.475,423.724Z" transform="translate(-192.505 -346.288)"/><path class="e" d="M266.44,423.724h3.226a1.613,1.613,0,0,1,1.613,1.613v3.226a1.613,1.613,0,0,1-1.613,1.613H266.44a1.613,1.613,0,0,1-1.613-1.613v-3.226A1.613,1.613,0,0,1,266.44,423.724Z" transform="translate(-235.789 -346.288)"/><path class="g" d="M319.406,423.724h3.226a1.613,1.613,0,0,1,1.613,1.613v3.226a1.613,1.613,0,0,1-1.613,1.613h-3.226a1.614,1.614,0,0,1-1.613-1.613v-3.226A1.613,1.613,0,0,1,319.406,423.724Z" transform="translate(-279.076 -346.288)"/><path class="f" d="M160.509,123.586h3.227a1.613,1.613,0,0,1,1.613,1.613v3.226a1.613,1.613,0,0,1-1.613,1.613h-3.227a1.613,1.613,0,0,1-1.613-1.613V125.2A1.613,1.613,0,0,1,160.509,123.586Z" transform="translate(-149.218 -100.999)"/><path class="h" d="M213.475,123.586H216.7a1.613,1.613,0,0,1,1.613,1.613v3.226a1.613,1.613,0,0,1-1.613,1.613h-3.226a1.613,1.613,0,0,1-1.613-1.613V125.2A1.613,1.613,0,0,1,213.475,123.586Z" transform="translate(-192.505 -100.999)"/><path class="g" d="M266.44,123.586h3.226a1.613,1.613,0,0,1,1.613,1.613v3.226a1.613,1.613,0,0,1-1.613,1.613H266.44a1.613,1.613,0,0,1-1.613-1.613V125.2A1.613,1.613,0,0,1,266.44,123.586Z" transform="translate(-235.789 -100.999)"/><path class="f" d="M319.406,123.586h3.226a1.613,1.613,0,0,1,1.613,1.613v3.226a1.613,1.613,0,0,1-1.613,1.613h-3.226a1.613,1.613,0,0,1-1.613-1.613V125.2A1.613,1.613,0,0,1,319.406,123.586Z" transform="translate(-279.076 -100.999)"/><path class="h" d="M160.509,185.379h3.227a1.613,1.613,0,0,1,1.613,1.613v3.226a1.613,1.613,0,0,1-1.613,1.613h-3.227a1.613,1.613,0,0,1-1.613-1.613v-3.226A1.614,1.614,0,0,1,160.509,185.379Z" transform="translate(-149.218 -151.501)"/><path class="g" d="M213.475,185.379H216.7a1.613,1.613,0,0,1,1.613,1.613v3.226a1.613,1.613,0,0,1-1.613,1.613h-3.226a1.613,1.613,0,0,1-1.613-1.613v-3.226A1.613,1.613,0,0,1,213.475,185.379Z" transform="translate(-192.505 -151.501)"/><path class="e" d="M266.44,185.379h3.226a1.613,1.613,0,0,1,1.613,1.613v3.226a1.613,1.613,0,0,1-1.613,1.613H266.44a1.613,1.613,0,0,1-1.613-1.613v-3.226A1.613,1.613,0,0,1,266.44,185.379Z" transform="translate(-235.789 -151.501)"/><path class="f" d="M319.406,185.379h3.226a1.613,1.613,0,0,1,1.613,1.613v3.226a1.613,1.613,0,0,1-1.613,1.613h-3.226a1.613,1.613,0,0,1-1.613-1.613v-3.226A1.613,1.613,0,0,1,319.406,185.379Z" transform="translate(-279.076 -151.501)"/><path class="g" d="M160.509,247.172h3.227a1.613,1.613,0,0,1,1.613,1.613v3.226a1.613,1.613,0,0,1-1.613,1.613h-3.227a1.613,1.613,0,0,1-1.613-1.613v-3.226A1.614,1.614,0,0,1,160.509,247.172Z" transform="translate(-149.218 -202.002)"/><path class="f" d="M213.475,247.172H216.7a1.613,1.613,0,0,1,1.613,1.613v3.226a1.613,1.613,0,0,1-1.613,1.613h-3.226a1.613,1.613,0,0,1-1.613-1.613v-3.226A1.613,1.613,0,0,1,213.475,247.172Z" transform="translate(-192.505 -202.002)"/><path class="e" d="M266.44,247.172h3.226a1.613,1.613,0,0,1,1.613,1.613v3.226a1.613,1.613,0,0,1-1.613,1.613H266.44a1.613,1.613,0,0,1-1.613-1.613v-3.226A1.614,1.614,0,0,1,266.44,247.172Z" transform="translate(-235.789 -202.002)"/><path class="g" d="M319.406,247.172h3.226a1.613,1.613,0,0,1,1.613,1.613v3.226a1.613,1.613,0,0,1-1.613,1.613h-3.226a1.613,1.613,0,0,1-1.613-1.613v-3.226A1.613,1.613,0,0,1,319.406,247.172Z" transform="translate(-279.076 -202.002)"/><path class="e" d="M160.509,308.966h3.227a1.613,1.613,0,0,1,1.613,1.613v3.226a1.613,1.613,0,0,1-1.613,1.613h-3.227a1.613,1.613,0,0,1-1.613-1.613v-3.226A1.613,1.613,0,0,1,160.509,308.966Z" transform="translate(-149.218 -252.504)"/><path class="f" d="M213.475,308.966H216.7a1.613,1.613,0,0,1,1.613,1.613v3.226a1.613,1.613,0,0,1-1.613,1.613h-3.226a1.613,1.613,0,0,1-1.613-1.613v-3.226A1.613,1.613,0,0,1,213.475,308.966Z" transform="translate(-192.505 -252.504)"/><path class="g" d="M266.44,308.966h3.226a1.613,1.613,0,0,1,1.613,1.613v3.226a1.613,1.613,0,0,1-1.613,1.613H266.44a1.613,1.613,0,0,1-1.613-1.613v-3.226A1.613,1.613,0,0,1,266.44,308.966Z" transform="translate(-235.789 -252.504)"/><path class="h" d="M319.406,308.966h3.226a1.613,1.613,0,0,1,1.613,1.613v3.226a1.613,1.613,0,0,1-1.613,1.613h-3.226a1.613,1.613,0,0,1-1.613-1.613v-3.226A1.613,1.613,0,0,1,319.406,308.966Z" transform="translate(-279.076 -252.504)"/><path class="g" d="M237.583,365.157H231.13a1.613,1.613,0,1,1,0-3.227h6.453a1.613,1.613,0,1,1,0,3.227Z" transform="translate(-206.933 -295.786)"/><g transform="translate(8.065 11.291)"><path class="i" d="M154.909,65.019h-3.226a1.613,1.613,0,0,1,0-3.227h3.226a1.613,1.613,0,0,1,0,3.227Z" transform="translate(-150.069 -61.792)"/><path class="i" d="M331.46,65.019h-3.227a1.613,1.613,0,0,1,0-3.227h3.227a1.613,1.613,0,0,1,0,3.227Z" transform="translate(-294.355 -61.792)"/></g></g></g></svg>