<svg xmlns="http://www.w3.org/2000/svg" width="92.82" height="86.311" viewBox="0 0 92.82 86.311"><defs><style>.a{fill:#f4f1f1;}.b{fill:#eceae7;}.c{fill:#e7dfdd;}.d{fill:#0d8ebc;}.e{fill:#0a789b;}.f{fill:#08475e;}.g{fill:#05303d;}.h{fill:#0a617d;}.i{fill:#ff415b;}</style></defs><g transform="translate(-1714.902 -260)"><g transform="translate(1714.902 260)"><path class="a" d="M53.584,218.222V193.885c2.022-48.693,71.388-48.656,73.391,0v24.337Z" transform="translate(-43.87 -157.191)"/><path class="b" d="M292.695,194.074v24.337H256V157.379A36.737,36.737,0,0,1,292.695,194.074Z" transform="translate(-209.589 -157.379)"/><path class="b" d="M53.584,113.114h73.391V96.669H53.584Z" transform="translate(-43.87 -41.073)"/><path class="c" d="M256,113.114h36.7V96.669H256Z" transform="translate(-209.589 -41.073)"/><path class="d" d="M167.87,254.912A19.537,19.537,0,0,1,148.355,235.4c1.072-25.889,37.961-25.881,39.029,0A19.536,19.536,0,0,1,167.87,254.912Z" transform="translate(-121.46 -204.503)"/><path class="e" d="M275.514,235.5A19.537,19.537,0,0,1,256,255.013V215.984A19.537,19.537,0,0,1,275.514,235.5Z" transform="translate(-209.589 -204.604)"/><path class="f" d="M235.243,296.787a5.943,5.943,0,1,0-5.944,5.943A5.944,5.944,0,0,0,235.243,296.787Z" transform="translate(-182.89 -265.891)"/><path class="g" d="M256,302.729V290.842A5.944,5.944,0,0,1,256,302.729Z" transform="translate(-209.589 -265.891)"/><path class="h" d="M216.877,276.088a8.673,8.673,0,0,0-8.663,8.663c.476,11.492,16.852,11.489,17.326,0A8.673,8.673,0,0,0,216.877,276.088Zm0,11.887a3.224,3.224,0,1,1,3.224-3.224A3.228,3.228,0,0,1,216.877,287.975Z" transform="translate(-170.467 -253.857)"/><path class="f" d="M256,293.168v-5.439a3.224,3.224,0,0,0,0-6.448v-5.439C267.494,276.319,267.485,292.695,256,293.168Z" transform="translate(-209.589 -253.61)"/><g transform="translate(20.39 43.806)"><path class="i" d="M112.471,227.845h5.439v-5.439h-5.439Z" transform="translate(-112.471 -222.406)"/></g><path class="d" d="M0,37.668V28.146A10.2,10.2,0,0,1,10.186,17.96H82.634A10.2,10.2,0,0,1,92.82,28.146v9.522Z" transform="translate(0 48.643)"/><path class="e" d="M256,37.668V17.96h36.224a10.2,10.2,0,0,1,10.186,10.186v9.522Z" transform="translate(-209.589 48.643)"/></g></g></svg>