<svg xmlns="http://www.w3.org/2000/svg" width="21.015" height="24.018" viewBox="0 0 21.015 24.018"><defs><style>.a{fill:#146f62;}</style></defs><path class="a" d="M6,6.943V5.066A.565.565,0,0,1,6.567,4.5H8.444a.565.565,0,0,1,.563.563V6.943a.565.565,0,0,1-.563.563H6.567A.565.565,0,0,1,6,6.943Zm6.567.563h1.876a.565.565,0,0,0,.563-.563V5.066a.565.565,0,0,0-.563-.563H12.572a.565.565,0,0,0-.563.563V6.943A.565.565,0,0,0,12.572,7.505Zm-6,4.5H8.444a.565.565,0,0,0,.563-.563V9.57a.565.565,0,0,0-.563-.563H6.567A.565.565,0,0,0,6,9.57v1.876A.565.565,0,0,0,6.567,12.009Zm6,0h1.876a.565.565,0,0,0,.563-.563V9.57a.565.565,0,0,0-.563-.563H12.572a.565.565,0,0,0-.563.563v1.876A.565.565,0,0,0,12.572,12.009Zm-3.565,3.94V14.073a.565.565,0,0,0-.563-.563H6.567A.565.565,0,0,0,6,14.073v1.876a.565.565,0,0,0,.563.563H8.444A.565.565,0,0,0,9.007,15.949Zm3.565.563h1.876a.565.565,0,0,0,.563-.563V14.073a.565.565,0,0,0-.563-.563H12.572a.565.565,0,0,0-.563.563v1.876A.565.565,0,0,0,12.572,16.512Zm8.444,5.817v1.689H0V22.329a.565.565,0,0,1,.563-.563h.915V1.126A1.123,1.123,0,0,1,2.6,0H18.412a1.123,1.123,0,0,1,1.126,1.126v20.64h.915A.565.565,0,0,1,21.015,22.329Zm-17.286-.61H9.007V18.576a.565.565,0,0,1,.563-.563h1.876a.565.565,0,0,1,.563.563v3.143h5.277V2.3L3.753,2.252Z"/></svg>