<svg xmlns="http://www.w3.org/2000/svg" width="14" height="14" viewBox="0 0 14 14"><defs><style>.a{fill:#f44336;}</style></defs><path class="a" d="M13.64,11.691,2.669.719a1.224,1.224,0,0,0-1.732,0L.359,1.3a1.225,1.225,0,0,0,0,1.732L11.33,14a1.224,1.224,0,0,0,1.732,0l.577-.577a1.224,1.224,0,0,0,0-1.732Zm0,0" transform="translate(0 -0.36)"/><path class="a" d="M11.331.721.359,11.692a1.225,1.225,0,0,0,0,1.732L.936,14a1.225,1.225,0,0,0,1.732,0L13.641,3.031a1.224,1.224,0,0,0,0-1.732L13.064.721a1.225,1.225,0,0,0-1.733,0Zm0,0" transform="translate(0 -0.361)"/></svg>