<svg id="ic-camera" xmlns="http://www.w3.org/2000/svg" width="24.14" height="21.122" viewBox="0 0 24.14 21.122">
  <path id="camera-solid" d="M24.14,37.281V50.859a2.264,2.264,0,0,1-2.263,2.263H2.263A2.264,2.264,0,0,1,0,50.859V37.281a2.264,2.264,0,0,1,2.263-2.263H6.412l.58-1.551A2.26,2.26,0,0,1,9.109,32h5.917a2.26,2.26,0,0,1,2.117,1.466l.585,1.551h4.149A2.264,2.264,0,0,1,24.14,37.281ZM17.728,44.07a5.658,5.658,0,1,0-5.658,5.658A5.662,5.662,0,0,0,17.728,44.07Zm-1.509,0a4.149,4.149,0,1,1-4.149-4.149A4.155,4.155,0,0,1,16.219,44.07Z" transform="translate(0 -32)" fill="#707070"/>
</svg>
