<svg id="ic-download-file" xmlns="http://www.w3.org/2000/svg" width="20.778" height="17.315" viewBox="0 0 20.778 17.315">
  <path id="Path_4778" data-name="Path 4778" d="M11.194,14.121a.648.648,0,0,1-.469-.2L6.18,9.158a.65.65,0,0,1,.469-1.1H9.03V3.082A1.084,1.084,0,0,1,10.112,2h2.164a1.084,1.084,0,0,1,1.082,1.082V8.06H15.74a.65.65,0,0,1,.469,1.1L11.664,13.92A.648.648,0,0,1,11.194,14.121Z" transform="translate(-0.805 -2)" fill="#0c4523"/>
  <path id="Path_4779" data-name="Path 4779" d="M19.263,21.463H1.515A1.517,1.517,0,0,1,0,19.948v-.433A1.517,1.517,0,0,1,1.515,18H19.263a1.517,1.517,0,0,1,1.515,1.515v.433A1.517,1.517,0,0,1,19.263,21.463Z" transform="translate(0 -4.148)" fill="#0c4523"/>
</svg>
