<svg id="ic-event" xmlns="http://www.w3.org/2000/svg" width="18" height="18.51" viewBox="0 0 18 18.51">
  <g id="Group_160935" data-name="Group 160935">
    <g id="Group_160934" data-name="Group 160934">
      <path id="Path_4516" data-name="Path 4516" d="M21.938,8.464h0V3.8A2.031,2.031,0,0,0,19.92,1.77h-.251V1.453a1.433,1.433,0,1,0-2.867,0V1.77H11.545V1.453a1.453,1.453,0,1,0-2.907,0V1.77H8.422A2.027,2.027,0,0,0,6.409,3.8v10.72a2.027,2.027,0,0,0,2.013,2.026h6.315a5.471,5.471,0,1,0,7.2-8.078ZM17.6,1.453a.628.628,0,0,1,.617-.639h.017a.634.634,0,0,1,.641.627s0,.008,0,.012V3H17.6Zm-8.163,0a.646.646,0,0,1,.653-.639h0a.65.65,0,0,1,.659.639V3H9.435ZM7.205,3.8a1.229,1.229,0,0,1,1.216-1.23h.217v.853a.389.389,0,0,0,.4.382h2.1a.393.393,0,0,0,.408-.382V2.566H16.8v.853a.371.371,0,0,0,.36.382h2.117a.377.377,0,0,0,.389-.364c0-.006,0-.012,0-.017V2.566h.251A1.234,1.234,0,0,1,21.141,3.8V5.075H7.205Zm1.216,11.95a1.23,1.23,0,0,1-1.216-1.23V5.871H21.141v2.16a5.475,5.475,0,0,0-6.957,7.714Zm10.518,1.961a4.67,4.67,0,1,1,4.67-4.67h0A4.675,4.675,0,0,1,18.939,17.707Z" transform="translate(-6.409)" fill="#178a7b"/>
    </g>
  </g>
  <g id="Group_160937" data-name="Group 160937" transform="translate(11.182 9.516)">
    <g id="Group_160936" data-name="Group 160936">
      <path id="Path_4517" data-name="Path 4517" d="M307.7,260.9h-2.26v-3.1a.516.516,0,1,0-1.032,0v3.619a.525.525,0,0,0,.525.516H307.7a.516.516,0,0,0,0-1.032Z" transform="translate(-304.409 -257.278)" fill="#178a7b"/>
    </g>
  </g>
</svg>
