<svg xmlns="http://www.w3.org/2000/svg" width="17.979" height="13.484" viewBox="0 0 17.979 13.484"><defs><style>.a{fill:#146f62;}</style></defs><path class="a" d="M16.293,64H1.685A1.685,1.685,0,0,0,0,65.685V75.8a1.685,1.685,0,0,0,1.685,1.685H16.293A1.685,1.685,0,0,0,17.979,75.8V65.685A1.685,1.685,0,0,0,16.293,64Zm0,1.685v1.433c-.787.641-2.043,1.638-4.726,3.739-.591.465-1.763,1.583-2.578,1.57-.815.013-1.987-1.1-2.578-1.57-2.683-2.1-3.938-3.1-4.726-3.739V65.685ZM1.685,75.8V69.281c.8.641,1.946,1.54,3.685,2.9.767.6,2.112,1.938,3.619,1.93,1.5.008,2.827-1.306,3.619-1.929,1.739-1.362,2.88-2.261,3.685-2.9V75.8Z" transform="translate(0 -64)"/></svg>