<svg id="ic-fingerprint" xmlns="http://www.w3.org/2000/svg" width="12.81" height="16.486" viewBox="0 0 12.81 16.486">
  <g id="Group_162456" data-name="Group 162456">
    <path id="Path_4640" data-name="Path 4640" d="M353.346,294.605a.241.241,0,0,0-.241.241v.093a4.8,4.8,0,0,1-1.432,3.586.242.242,0,0,0,.332.35,5.267,5.267,0,0,0,1.582-3.937v-.093A.242.242,0,0,0,353.346,294.605Z" transform="translate(-342.115 -285.119)" fill="#178a7b"/>
    <path id="Path_4641" data-name="Path 4641" d="M352.866,83.573a.241.241,0,1,0-.335.347,4.555,4.555,0,0,1,1.406,3.3v2.194a.241.241,0,1,0,.483,0V87.222A5.035,5.035,0,0,0,352.866,83.573Z" transform="translate(-342.946 -80.817)" fill="#178a7b"/>
    <path id="Path_4642" data-name="Path 4642" d="M163.913,42.82a4.516,4.516,0,0,1,2.57-.819h.028a4.565,4.565,0,0,1,2.326.633.241.241,0,1,0,.246-.416,5.049,5.049,0,0,0-2.572-.7h-.03a5,5,0,0,0-2.844.906.242.242,0,0,0,.277.4Z" transform="translate(-160.106 -40.181)" fill="#178a7b"/>
    <path id="Path_4643" data-name="Path 4643" d="M99.79,102.2a4.567,4.567,0,0,1-.706-2.442v-3.63a4.648,4.648,0,0,1,1.155-3.067.241.241,0,1,0-.363-.319A5.13,5.13,0,0,0,98.6,96.125v3.63a5.049,5.049,0,0,0,.78,2.7c.045.072.093.143.142.212a.241.241,0,1,0,.395-.278C99.874,102.326,99.831,102.262,99.79,102.2Z" transform="translate(-97.264 -89.674)" fill="#178a7b"/>
    <path id="Path_4644" data-name="Path 4644" d="M152.356,165.748a.764.764,0,0,1-.423-.685v-3.649a.783.783,0,0,1,.751-.792.766.766,0,0,1,.78.765v2.972a.241.241,0,0,0,.483,0s0-2.967,0-2.972a1.249,1.249,0,0,0-1.273-1.248,1.269,1.269,0,0,0-1.224,1.275v3.649a1.244,1.244,0,0,0,.689,1.116,1.668,1.668,0,1,1-1.486,2.987,4.6,4.6,0,0,1-.989-.669.241.241,0,1,0-.32.362,5.086,5.086,0,0,0,1.093.739,2.151,2.151,0,1,0,1.92-3.85Z" transform="translate(-146.294 -154.983)" fill="#178a7b"/>
    <path id="Path_4645" data-name="Path 4645" d="M136.587,262.348a.241.241,0,0,0-.242.241v1.392a3.837,3.837,0,0,0,2.134,3.448A.241.241,0,1,0,138.7,267a3.357,3.357,0,0,1-1.868-3.016V262.59A.241.241,0,0,0,136.587,262.348Z" transform="translate(-133.793 -253.901)" fill="#178a7b"/>
    <path id="Path_4646" data-name="Path 4646" d="M299.056,144.443a.241.241,0,0,0-.012.341,1.971,1.971,0,0,1,.532,1.35v3.754a.241.241,0,0,0,.483,0v-3.754a2.452,2.452,0,0,0-.662-1.679A.242.242,0,0,0,299.056,144.443Z" transform="translate(-291.191 -139.729)" fill="#178a7b"/>
    <path id="Path_4647" data-name="Path 4647" d="M182.543,122.973a.241.241,0,0,0,.146-.461,2.466,2.466,0,0,0-3.208,2.376v3.649a.242.242,0,0,0,.483,0v-3.649a1.983,1.983,0,0,1,2.58-1.916Z" transform="translate(-175.539 -118.457)" fill="#178a7b"/>
    <path id="Path_4648" data-name="Path 4648" d="M189.807,341.837a.241.241,0,0,0-.079.332,2.47,2.47,0,0,0,.992.908.241.241,0,1,0,.218-.431,1.987,1.987,0,0,1-.8-.73A.242.242,0,0,0,189.807,341.837Z" transform="translate(-185.422 -330.795)" fill="#178a7b"/>
    <path id="Path_4649" data-name="Path 4649" d="M255.578,301.563a.241.241,0,1,0-.235.422,2.9,2.9,0,0,1,1.369,3.365,2.853,2.853,0,0,1-.4.825.241.241,0,0,0,.4.278,3.333,3.333,0,0,0,.468-.965,3.383,3.383,0,0,0-1.6-3.926Z" transform="translate(-248.84 -291.823)" fill="#178a7b"/>
    <path id="Path_4650" data-name="Path 4650" d="M143.319,88.946a4.7,4.7,0,0,0,.732-2.506V83.114a3.905,3.905,0,0,0-1.138-2.731,3.827,3.827,0,0,0-2.715-1.122h-.023a3.885,3.885,0,0,0-3.83,3.9v1.109a.241.241,0,1,0,.483,0V83.16a3.4,3.4,0,0,1,3.351-3.416h.019a3.375,3.375,0,0,1,3.37,3.37V86.44a4.216,4.216,0,0,1-.658,2.248.242.242,0,0,0,.409.257Z" transform="translate(-133.793 -76.709)" fill="#178a7b"/>
    <path id="Path_4651" data-name="Path 4651" d="M248.5,208.661v1.207a.241.241,0,1,0,.483,0v-1.207a.241.241,0,1,0-.483,0Z" transform="translate(-242.337 -201.709)" fill="#178a7b"/>
    <path id="Path_4652" data-name="Path 4652" d="M63.489,0a6.412,6.412,0,0,0-6.4,6.4v3.676a6.4,6.4,0,1,0,12.81,0V6.4a6.412,6.412,0,0,0-6.4-6.4Zm5.922,10.081a5.922,5.922,0,0,1-11.844,0V6.4a5.922,5.922,0,0,1,11.844,0Z" transform="translate(-57.084 0)" fill="#178a7b"/>
  </g>
</svg>
