<svg xmlns="http://www.w3.org/2000/svg" width="17.76" height="17.76" viewBox="0 0 17.76 17.76"><defs><style>.a{fill:#146f62;}</style></defs><path class="a" d="M17.76,6.1a6.108,6.108,0,0,1-7.244,6l-.833.937a.832.832,0,0,1-.622.279H7.77v1.387a.832.832,0,0,1-.832.832H5.55v1.387a.832.832,0,0,1-.832.832H.832A.832.832,0,0,1,0,16.927V14.22a.833.833,0,0,1,.244-.589L5.856,8.019A6.105,6.105,0,1,1,17.76,6.1Zm-6.1-1.665A1.665,1.665,0,1,0,13.32,2.775,1.665,1.665,0,0,0,11.655,4.44Z" transform="translate(0)"/></svg>