<svg id="ic-list-detail" xmlns="http://www.w3.org/2000/svg" width="24" height="21" viewBox="0 0 24 21">
  <path id="list-alt-regular" d="M21.75,32H2.25A2.25,2.25,0,0,0,0,34.25v16.5A2.25,2.25,0,0,0,2.25,53h19.5A2.25,2.25,0,0,0,24,50.75V34.25A2.25,2.25,0,0,0,21.75,32Zm-.281,18.75H2.531a.281.281,0,0,1-.281-.281V34.531a.281.281,0,0,1,.281-.281H21.469a.281.281,0,0,1,.281.281V50.469A.281.281,0,0,1,21.469,50.75ZM19.5,46.438v1.125a.563.563,0,0,1-.562.563H9.563A.563.563,0,0,1,9,47.563V46.438a.563.563,0,0,1,.563-.562h9.375A.563.563,0,0,1,19.5,46.438Zm0-4.5v1.125a.563.563,0,0,1-.562.563H9.563A.563.563,0,0,1,9,43.063V41.938a.563.563,0,0,1,.563-.562h9.375A.563.563,0,0,1,19.5,41.938Zm0-4.5v1.125a.563.563,0,0,1-.562.563H9.563A.563.563,0,0,1,9,38.563V37.438a.563.563,0,0,1,.563-.562h9.375A.563.563,0,0,1,19.5,37.438ZM7.688,38A1.688,1.688,0,1,1,6,36.313,1.688,1.688,0,0,1,7.688,38Zm0,4.5A1.688,1.688,0,1,1,6,40.813,1.688,1.688,0,0,1,7.688,42.5Zm0,4.5A1.688,1.688,0,1,1,6,45.313,1.688,1.688,0,0,1,7.688,47Z" transform="translate(0 -32)" fill="#fff"/>
</svg>
