<svg xmlns="http://www.w3.org/2000/svg" width="14.442" height="23.307" viewBox="0 0 14.442 23.307"><defs><style>.a{fill:#fff;}</style></defs><path class="a" d="M12.275,0H2.166A2.176,2.176,0,0,0,0,2.185V21.122a2.176,2.176,0,0,0,2.166,2.185H12.275a2.176,2.176,0,0,0,2.166-2.185V2.185A2.176,2.176,0,0,0,12.275,0ZM7.221,21.85a1.457,1.457,0,1,1,1.444-1.457A1.449,1.449,0,0,1,7.221,21.85Zm5.055-4.916a.546.546,0,0,1-.542.546H2.708a.546.546,0,0,1-.542-.546V2.731a.546.546,0,0,1,.542-.546h9.026a.546.546,0,0,1,.542.546Z"/></svg>