<svg xmlns="http://www.w3.org/2000/svg" width="23.984" height="20.986" viewBox="0 0 23.984 20.986"><defs><style>.a{fill:#fff;}</style></defs><path class="a" d="M.857,63.855H23.128A.857.857,0,0,0,23.984,63V60.857A.857.857,0,0,0,23.128,60H.857A.857.857,0,0,0,0,60.857V63A.857.857,0,0,0,.857,63.855Zm0,8.566H23.128a.857.857,0,0,0,.857-.857V69.422a.857.857,0,0,0-.857-.857H.857A.857.857,0,0,0,0,69.422v2.141A.857.857,0,0,0,.857,72.42Zm0,8.566H23.128a.857.857,0,0,0,.857-.857V77.988a.857.857,0,0,0-.857-.857H.857A.857.857,0,0,0,0,77.988V80.13A.857.857,0,0,0,.857,80.986Z" transform="translate(0 -60)"/></svg>