<svg xmlns="http://www.w3.org/2000/svg" width="18.133" height="14.507" viewBox="0 0 18.133 14.507"><defs><style>.a{fill:#146f62;}</style></defs><path class="a" d="M9.068,11.33A4.065,4.065,0,0,1,5.019,7.559l-2.972-2.3a9.443,9.443,0,0,0-1.04,1.575.917.917,0,0,0,0,.827A9.088,9.088,0,0,0,9.068,12.69a8.8,8.8,0,0,0,2.207-.3L9.8,11.256a4.084,4.084,0,0,1-.737.074Zm8.891,1.646-3.132-2.421a9.385,9.385,0,0,0,2.3-2.892.917.917,0,0,0,0-.827A9.088,9.088,0,0,0,9.068,1.81,8.731,8.731,0,0,0,4.894,2.878L1.289.092a.453.453,0,0,0-.636.08L.1.888a.453.453,0,0,0,.08.636l16.67,12.884a.453.453,0,0,0,.636-.08l.556-.716A.453.453,0,0,0,17.96,12.976ZM12.754,8.953l-1.113-.861a2.685,2.685,0,0,0-3.29-3.455,1.35,1.35,0,0,1,.264.8,1.322,1.322,0,0,1-.044.283L6.485,4.108A4.032,4.032,0,0,1,9.068,3.17a4.078,4.078,0,0,1,4.08,4.08,3.983,3.983,0,0,1-.394,1.7Z" transform="translate(-0.001 0.003)"/></svg>