<svg id="ic-mobile" xmlns="http://www.w3.org/2000/svg" width="10.442" height="18.306" viewBox="0 0 10.442 18.306">
  <path id="mobile-alt-solid" d="M8.875,0H1.566A1.647,1.647,0,0,0,0,1.716V16.59a1.647,1.647,0,0,0,1.566,1.716H8.875a1.647,1.647,0,0,0,1.566-1.716V1.716A1.647,1.647,0,0,0,8.875,0ZM5.221,17.162a1.149,1.149,0,0,1,0-2.288,1.149,1.149,0,0,1,0,2.288ZM8.875,13.3a.413.413,0,0,1-.392.429H1.958a.413.413,0,0,1-.392-.429V2.145a.413.413,0,0,1,.392-.429H8.484a.413.413,0,0,1,.392.429Z" transform="translate(0)" fill="#178a7b"/>
</svg>
