<svg xmlns="http://www.w3.org/2000/svg" width="24.033" height="24.033" viewBox="0 0 24.033 24.033"><defs><style>.a{fill:#fff;}</style></defs><g transform="translate(0 0)"><path class="a" d="M318.418,301.555c-.068-.226-.347-.332-.634-.332a.613.613,0,0,0-.626.332L315.7,306.3a.438.438,0,0,0-.015.075c0,.241.354.407.618.407.166,0,.294-.053.332-.2l.286-1h1.727l.287,1c.038.143.166.2.332.2.264,0,.618-.173.618-.407a.331.331,0,0,0-.015-.075Zm-1.29,3.258.656-2.315.656,2.315Zm0,0" transform="translate(-300.869 -287.084)"/><path class="a" d="M21.444,9.8H14.229V6.723l2.345-1.675a.7.7,0,0,0,0-1.146L14.2,2.207A2.593,2.593,0,0,0,11.639,0H2.589A2.592,2.592,0,0,0,0,2.589v9.05a2.592,2.592,0,0,0,2.59,2.589H9.8v3.082L7.46,18.985a.7.7,0,0,0,0,1.146l2.373,1.695a2.593,2.593,0,0,0,2.561,2.207h9.05a2.592,2.592,0,0,0,2.589-2.59v-9.05A2.592,2.592,0,0,0,21.444,9.8ZM2.59,12.821a1.183,1.183,0,0,1-1.181-1.181V2.589A1.183,1.183,0,0,1,2.59,1.408h9.05a1.183,1.183,0,0,1,1.181,1.181.7.7,0,0,0,.295.573l1.837,1.312L13.115,5.787a.7.7,0,0,0-.295.573V9.8h-.427A2.592,2.592,0,0,0,9.8,12.394v.427Zm20.036,8.623a1.183,1.183,0,0,1-1.181,1.181h-9.05a1.183,1.183,0,0,1-1.181-1.181.7.7,0,0,0-.295-.573L9.08,19.558l1.837-1.312a.7.7,0,0,0,.295-.573V12.394a1.183,1.183,0,0,1,1.181-1.181h9.05a1.183,1.183,0,0,1,1.181,1.181Zm0,0"/><path class="a" d="M101.743,94.511a.4.4,0,0,0,0-.794H99.977v-.964a.4.4,0,1,0-.794,0v.964H97.416a.4.4,0,0,0,0,.794h.547a3.787,3.787,0,0,0,.993,2.183,2.989,2.989,0,0,1-1.54.426.4.4,0,0,0,0,.794,3.777,3.777,0,0,0,2.163-.678,3.778,3.778,0,0,0,2.163.678.4.4,0,0,0,0-.794,2.986,2.986,0,0,1-1.54-.426,3.787,3.787,0,0,0,.993-2.183ZM99.579,96.2a3,3,0,0,1-.816-1.687H100.4A3,3,0,0,1,99.579,96.2Zm0,0" transform="translate(-92.465 -88.02)"/></g></svg>