<svg xmlns="http://www.w3.org/2000/svg" width="20.915" height="21.317" viewBox="0 0 20.915 21.317"><defs><style>.a{fill:#fff;}</style></defs><g transform="translate(0)"><path class="a" d="M24.53,2.288a10.456,10.456,0,1,1-12.153,0,1.013,1.013,0,0,1,1.476.326l.666,1.189a1.017,1.017,0,0,1-.278,1.311,7.083,7.083,0,1,0,8.429,0A1.011,1.011,0,0,1,22.4,3.807l.666-1.189a1.009,1.009,0,0,1,1.467-.33Zm-4.385,8.878V1.015A1.011,1.011,0,0,0,19.132,0H17.783a1.011,1.011,0,0,0-1.012,1.015V11.166a1.011,1.011,0,0,0,1.012,1.015h1.349A1.011,1.011,0,0,0,20.144,11.166Z" transform="translate(-8)"/></g></svg>