<svg xmlns="http://www.w3.org/2000/svg" width="16.442" height="26.306" viewBox="0 0 16.442 26.306"><defs><style>.a{fill:#707070;}</style></defs><path class="a" d="M13.975,0H2.466A2.467,2.467,0,0,0,0,2.466V23.84a2.467,2.467,0,0,0,2.466,2.466H13.975a2.467,2.467,0,0,0,2.466-2.466V2.466A2.467,2.467,0,0,0,13.975,0ZM8.221,24.662a1.644,1.644,0,1,1,1.644-1.644A1.642,1.642,0,0,1,8.221,24.662Zm5.755-5.549a.618.618,0,0,1-.617.617H3.083a.618.618,0,0,1-.617-.617V3.083a.618.618,0,0,1,.617-.617H13.359a.618.618,0,0,1,.617.617Z"/></svg>