<svg xmlns="http://www.w3.org/2000/svg" width="11.904" height="14.284" viewBox="0 0 11.904 14.284">
  <g id="nfc" transform="translate(-2)">
    <path id="Path_232" data-name="Path 232" d="M12.416,14.284H3.488A1.49,1.49,0,0,1,2,12.8V1.488A1.49,1.49,0,0,1,3.488,0h8.928A1.49,1.49,0,0,1,13.9,1.488V12.8A1.49,1.49,0,0,1,12.416,14.284ZM3.488.6a.894.894,0,0,0-.893.893V12.8a.894.894,0,0,0,.893.893h8.928a.894.894,0,0,0,.893-.893V1.488A.894.894,0,0,0,12.416.6Z" fill="#178a7b"/>
    <path id="Path_233" data-name="Path 233" d="M17.083,17.571h-1.19A.894.894,0,0,1,15,16.678V14.893A.894.894,0,0,1,15.893,14h1.19a.3.3,0,0,1,0,.6h-1.19a.3.3,0,0,0-.3.3v1.786a.3.3,0,0,0,.3.3h1.19a.3.3,0,0,1,0,.6Z" transform="translate(-5.263 -5.668)" fill="#178a7b"/>
    <path id="Path_234" data-name="Path 234" d="M10.3,17.571a.3.3,0,0,1-.3-.3V14.893A.894.894,0,0,1,10.893,14h1.19a.3.3,0,0,1,0,.6h-1.19a.3.3,0,0,0-.3.3v2.381A.3.3,0,0,1,10.3,17.571Z" transform="translate(-3.239 -5.668)" fill="#178a7b"/>
    <path id="Path_235" data-name="Path 235" d="M12.083,17.6H10.3a.3.3,0,1,1,0-.6h1.786a.3.3,0,0,1,0,.6Z" transform="translate(-3.239 -6.882)" fill="#178a7b"/>
    <path id="Path_236" data-name="Path 236" d="M7.083,17.571a.3.3,0,0,1-.255-.145L5.6,15.372v1.9a.3.3,0,0,1-.6,0V14.3a.3.3,0,0,1,.553-.153L6.786,16.2V14.3a.3.3,0,1,1,.6,0v2.976a.3.3,0,0,1-.218.287A.31.31,0,0,1,7.083,17.571Z" transform="translate(-1.214 -5.667)" fill="#178a7b"/>
    <path id="Path_237" data-name="Path 237" d="M11.7,9.768a.446.446,0,1,1,.446-.446A.447.447,0,0,1,11.7,9.768Z" transform="translate(-3.745 -3.593)" fill="#178a7b"/>
    <path id="Path_238" data-name="Path 238" d="M12.2,7.258a.3.3,0,0,1-.211-.087,1.52,1.52,0,0,0-2.1,0,.3.3,0,0,1-.421-.421,2.129,2.129,0,0,1,2.944,0,.3.3,0,0,1-.21.508Z" transform="translate(-2.987 -2.493)" fill="#178a7b"/>
    <path id="Path_239" data-name="Path 239" d="M12.538,5.178a.3.3,0,0,1-.211-.087,2.978,2.978,0,0,0-4.209,0A.3.3,0,0,1,7.7,4.67a3.574,3.574,0,0,1,5.051,0,.3.3,0,0,1,0,.421A.3.3,0,0,1,12.538,5.178Z" transform="translate(-2.271 -1.467)" fill="#178a7b"/>
  </g>
</svg>
