<svg xmlns="http://www.w3.org/2000/svg" width="15.672" height="17.91" viewBox="0 0 15.672 17.91">
  <path id="paperclip-solid" d="M1.513,16.306a5.48,5.48,0,0,1,.048-7.611L8.9,1.189a3.915,3.915,0,0,1,5.62,0,4.072,4.072,0,0,1,0,5.677L8.123,13.4a2.61,2.61,0,0,1-3.777-.035A2.711,2.711,0,0,1,4.4,9.626L9.425,4.489a.56.56,0,0,1,.791-.008l.8.783a.56.56,0,0,1,.008.791L6,11.191a.473.473,0,0,0-.023.64.373.373,0,0,0,.549.006l6.4-6.536a1.832,1.832,0,0,0,0-2.547,1.678,1.678,0,0,0-2.419,0L3.162,10.259a3.24,3.24,0,0,0-.042,4.489,2.983,2.983,0,0,0,4.3.01L13.444,8.6a.56.56,0,0,1,.791-.009l.8.782a.56.56,0,0,1,.009.791L9.026,16.323a5.22,5.22,0,0,1-7.513-.017Z" transform="translate(0 0)" fill="#707070"/>
</svg>
