<svg xmlns="http://www.w3.org/2000/svg" width="30.15" height="35.082" viewBox="0 0 30.15 35.082"><defs><style>.a{fill:#146f62;}</style></defs><g transform="translate(0.001)"><path class="a" d="M30.342,7.334,23.174.295A1.028,1.028,0,0,0,22.454,0H4.334A3.839,3.839,0,0,0,.5,3.835V31.247a3.839,3.839,0,0,0,3.835,3.835h22.48a3.839,3.839,0,0,0,3.835-3.835V8.067a1.028,1.028,0,0,0-.308-.733Zm-6.86-3.856,3.626,3.561h-3.3a.327.327,0,0,1-.327-.327Zm3.332,29.548H4.334a1.781,1.781,0,0,1-1.779-1.779V3.835A1.781,1.781,0,0,1,4.334,2.056H21.427V6.712a2.385,2.385,0,0,0,2.382,2.382h4.785V31.247a1.781,1.781,0,0,1-1.779,1.779Zm0,0" transform="translate(-0.5 0)"/><path class="a" d="M113.708,238H99.22a1.028,1.028,0,1,0,0,2.056h14.488a1.028,1.028,0,1,0,0-2.056Zm0,0" transform="translate(-91.498 -221.692)"/><path class="a" d="M99.219,300.056h11.814a1.028,1.028,0,0,0,0-2.056H99.219a1.028,1.028,0,0,0,0,2.056Zm0,0" transform="translate(-91.499 -277.581)"/><path class="a" d="M112.458,358H99.219a1.028,1.028,0,1,0,0,2.056h13.239a1.028,1.028,0,1,0,0-2.056Zm0,0" transform="translate(-91.499 -333.47)"/></g></svg>