<svg xmlns="http://www.w3.org/2000/svg" width="19" height="19" viewBox="0 0 19 19"><defs><style>.a{fill:#fff;}</style></defs><path class="a" d="M18.4,36.154,14.846,32.6a2.036,2.036,0,0,0-1.439-.6H2.036A2.036,2.036,0,0,0,0,34.036V48.964A2.036,2.036,0,0,0,2.036,51H16.964A2.036,2.036,0,0,0,19,48.964V37.593a2.036,2.036,0,0,0-.6-1.439Zm-6.868-2.118v3.393H6.107V34.036ZM16.71,48.964H2.29a.254.254,0,0,1-.254-.254V34.29a.254.254,0,0,1,.254-.254H4.071v4.411a1.018,1.018,0,0,0,1.018,1.018h7.464a1.018,1.018,0,0,0,1.018-1.018V34.2l3.318,3.318a.254.254,0,0,1,.075.18V48.71A.254.254,0,0,1,16.71,48.964ZM9.5,40.482a3.732,3.732,0,1,0,3.732,3.732A3.736,3.736,0,0,0,9.5,40.482Zm0,5.429a1.7,1.7,0,1,1,1.7-1.7A1.7,1.7,0,0,1,9.5,45.911Z" transform="translate(0 -32)"/></svg>