<svg xmlns="http://www.w3.org/2000/svg" width="44.985" height="34.934" viewBox="0 0 44.985 34.934"><defs><style>.a{fill:#146f62;}</style></defs><path class="a" d="M44.547,42.277a1.463,1.463,0,0,0-.266-2.3L24.008,26.652a2.965,2.965,0,0,0-3,0L.73,39.972a1.469,1.469,0,0,0-.311,2.3l4.166,4.5v5.89a1.873,1.873,0,0,0-1.444,1.746v2.308a2.146,2.146,0,0,0,1.79,2.037L20.708,61.07a14.788,14.788,0,0,0,3.572,0l15.75-2.317a2.1,2.1,0,0,0,1.736-2.037V54.407a1.7,1.7,0,0,0-1.444-1.746V46.775ZM7.473,52.589V49.748H37.254v2.841ZM16.5,36.476s.977-.012,1.217-.012c2.1,0,4.6-2.7,4.784-2.982.18.285,2.649,2.982,4.747,2.982.24,0,1.165.012,1.165.012v4.506a2.982,2.982,0,0,1-.234,1.087,5.011,5.011,0,0,1-.856,1.364,10.936,10.936,0,0,1-1.553,1.442,18.221,18.221,0,0,1-3.257,1.9,18.209,18.209,0,0,1-3.259-1.9,11.018,11.018,0,0,1-1.563-1.442,5.187,5.187,0,0,1-.9-1.364,3.068,3.068,0,0,1-.292-1.087V36.476Z" transform="translate(0 -26.244)"/></svg>