<svg xmlns="http://www.w3.org/2000/svg" width="22" height="24" viewBox="0 0 22 24"><defs><style>.a{fill:#707070;}</style></defs><path class="a" d="M15.4,14.25c-1.409,0-2.087.75-4.4.75s-2.986-.75-4.4-.75A6.457,6.457,0,0,0,0,20.55v1.2A2.306,2.306,0,0,0,2.357,24H19.643A2.306,2.306,0,0,0,22,21.75v-1.2A6.457,6.457,0,0,0,15.4,14.25Zm4.243,7.5H2.357v-1.2A4.157,4.157,0,0,1,6.6,16.5c.717,0,1.881.75,4.4.75,2.539,0,3.678-.75,4.4-.75a4.157,4.157,0,0,1,4.243,4.05ZM11,13.5a6.918,6.918,0,0,0,7.071-6.75A6.918,6.918,0,0,0,11,0,6.918,6.918,0,0,0,3.929,6.75,6.918,6.918,0,0,0,11,13.5ZM11,2.25a4.618,4.618,0,0,1,4.714,4.5A4.618,4.618,0,0,1,11,11.25a4.618,4.618,0,0,1-4.714-4.5A4.618,4.618,0,0,1,11,2.25Z"/></svg>