<svg xmlns="http://www.w3.org/2000/svg" width="17.996" height="24" viewBox="0 0 17.996 24">
  <g id="Group_165340" data-name="Group 165340" transform="translate(15429 23335)">
    <g id="ic-car" transform="translate(-15426 -23325)">
      <path id="car-solid" d="M11.722,66.625h-1.4l-.39-.975A2.612,2.612,0,0,0,7.492,64H4.515a2.612,2.612,0,0,0-2.437,1.65l-.39.975H.285a.281.281,0,0,0-.273.349l.141.563a.281.281,0,0,0,.273.213H.9a1.49,1.49,0,0,0-.518,1.125V70a1.488,1.488,0,0,0,.375.983V72.25A.75.75,0,0,0,1.5,73h.75A.75.75,0,0,0,3,72.25V71.5H9v.75a.75.75,0,0,0,.75.75h.75a.75.75,0,0,0,.75-.75V70.983A1.487,1.487,0,0,0,11.629,70V68.875a1.49,1.49,0,0,0-.517-1.125h.47a.281.281,0,0,0,.273-.213L12,66.974A.281.281,0,0,0,11.722,66.625Zm-8.251-.418A1.125,1.125,0,0,1,4.515,65.5H7.492a1.125,1.125,0,0,1,1.045.707L9,67.375H3ZM2.254,70a.748.748,0,1,1,0-1.5,1.443,1.443,0,0,1,1.125,1.121C3.379,70.07,2.7,70,2.254,70Zm7.5,0c-.45,0-1.125.075-1.125-.374A1.443,1.443,0,0,1,9.754,68.5a.748.748,0,1,1,0,1.5Z" transform="translate(-0.004 -64)"/>
    </g>
    <g id="ic-file" transform="translate(-15429 -23335)">
      <path id="file-regular" d="M17.336,4.493,13.4.561A2.25,2.25,0,0,0,11.815-.1H2.25A2.257,2.257,0,0,0,0,2.154v19.5A2.25,2.25,0,0,0,2.25,23.9h13.5A2.25,2.25,0,0,0,18,21.65V6.086a2.261,2.261,0,0,0-.661-1.593ZM15.564,5.9H12V2.337ZM2.25,21.65V2.154h7.5V7.028a1.122,1.122,0,0,0,1.125,1.125h4.874v13.5Z" transform="translate(0 0.1)"/>
    </g>
  </g>
</svg>
